{"accessors" : [{"bufferView" : 0, "byteOffset" : 0, "componentType" : 5123, "count" : 23574, "type" : "SCALAR", "max" : [23573], "min" : [0]}, {"bufferView" : 1, "byteOffset" : 0, "componentType" : 5126, "count" : 23574, "type" : "VEC3", "max" : [56.677513122558594, 47.30715560913086, 32.35551452636719], "min" : [-56.677513122558594, -54.542762756347656, -53.83977508544922], "name" : "POSITION"}, {"bufferView" : 1, "byteOffset" : 12, "componentType" : 5126, "count" : 23574, "type" : "VEC3", "max" : [1.0000044107437134, 1.0000044107437134, 1.0000044107437134], "min" : [-1.0000044107437134, -1.0000044107437134, -1.0000044107437134], "name" : "NORMAL"}, {"bufferView" : 1, "byteOffset" : 24, "componentType" : 5126, "count" : 23574, "type" : "VEC2", "max" : [0.999500036239624, -0.0005000000237487257], "min" : [0.0005000000237487257, -0.9894285202026367], "name" : "TEXCOORD_0"}], "asset" : {"generator" : "Aspose.3D 21.4", "version" : "2.0"}, "buffers" : [{"uri" : "buffer.bin", "byteLength" : 801524}], "bufferViews" : [{"buffer" : 0, "byteOffset" : 0, "byteLength" : 47148, "target" : 34963}, {"buffer" : 0, "byteOffset" : 47152, "byteLength" : 754368, "byteStride" : 32, "target" : 34962}], "images" : [{"uri" : "H:\\year 1\\drone\\Drone texture\\Drone5_low_wire_000000000_Emissive.png"}, {"uri" : "H:\\year 1\\drone\\Drone texture\\Drone5_low_wire_000000000_BaseColor.png"}], "materials" : [{"pbrMetallicRoughness" : {"baseColorFactor" : [0, 0, 0, 1], "baseColorTexture" : {"index" : 1, "texCoord" : 0}, "metallicFactor" : 0, "roughnessFactor" : 0}, "emissiveTexture" : {"index" : 0, "texCoord" : 0}, "emissiveFactor" : [0, 0, 0], "alphaMode" : "OPAQUE", "doubleSided" : false}], "meshes" : [{"primitives" : [{"attributes" : {"POSITION" : 1, "NORMAL" : 2, "TEXCOORD_0" : 3}, "indices" : 0, "material" : 0, "mode" : 4}]}], "nodes" : [{"matrix" : [1, 0, 0, 0, 0, 2.220446049250313E-16, -1, 0, 0, 1, 2.220446049250313E-16, 0, 0, 54.371368408203125, 0, 1], "mesh" : 0, "name" : "drone_low"}], "samplers" : [{"magFilter" : 9729, "minFilter" : 9729, "wrapS" : 10497, "wrapT" : 10497}, {"magFilter" : 9729, "minFilter" : 9729, "wrapS" : 10497, "wrapT" : 10497}], "scene" : 0, "scenes" : [{"nodes" : [0]}], "textures" : [{"sampler" : 0, "source" : 0}, {"sampler" : 1, "source" : 1}]}