{
    "asset": {
        "version": "2.0",
        "generator": "Open Asset Import Library (assimp v3.1.243586452)"
    },
    "accessors": [
        {
            "bufferView": 0,
            "byteOffset": 0,
            "componentType": 5126,
            "count": 7938,
            "type": "VEC3",
            "max": [
                46.129737854003909,
                24.669706344604493,
                14.833427429199219
            ],
            "min": [
                -17.599071502685548,
                -23.086965560913087,
                -64.0774154663086
            ]
        },
        {
            "bufferView": 1,
            "byteOffset": 0,
            "componentType": 5126,
            "count": 7938,
            "type": "VEC3",
            "max": [
                0.9984818696975708,
                1.0,
                1.0
            ],
            "min": [
                -0.9999104142189026,
                -1.0,
                -1.0
            ]
        },
        {
            "bufferView": 2,
            "byteOffset": 0,
            "componentType": 5126,
            "count": 7938,
            "type": "VEC2",
            "max": [
                0.9981996417045593,
                0.9990000128746033
            ],
            "min": [
                0.0010000000474974514,
                0.0009999871253967286
            ]
        },
        {
            "bufferView": 3,
            "byteOffset": 0,
            "componentType": 5123,
            "count": 13185,
            "type": "SCALAR",
            "max": [
                7937.0
            ],
            "min": [
                0.0
            ]
        }
    ],
    "buffers": [
        {
            "byteLength": 280386,
            "uri": "Tsetse.bin"
        }
    ],
    "bufferViews": [
        {
            "buffer": 0,
            "byteOffset": 0,
            "byteLength": 95256,
            "target": 34962
        },
        {
            "buffer": 0,
            "byteOffset": 95256,
            "byteLength": 95256,
            "target": 34962
        },
        {
            "buffer": 0,
            "byteOffset": 190512,
            "byteLength": 63504,
            "target": 34962
        },
        {
            "buffer": 0,
            "byteOffset": 254016,
            "byteLength": 26370,
            "target": 34963
        }
    ],
    "materials": [
        {
            "name": "Material _2",
            "pbrMetallicRoughness": {
                "metallicFactor": 0.0
            }
        }
    ],
    "meshes": [
        {
            "name": "Sphere001",
            "primitives": [
                {
                    "mode": 4,
                    "material": 0,
                    "indices": 3,
                    "attributes": {
                        "POSITION": 0,
                        "NORMAL": 1,
                        "TEXCOORD_0": 2
                    }
                }
            ]
        }
    ],
    "nodes": [
        {
            "name": "RootNode",
            "children": [
                1
            ]
        },
        {
            "name": "Sphere001",
            "matrix": [
                -2.3712292573918604e-8,
                3.3216952891949026e-17,
                -0.5424739718437195,
                0.0,
                -0.715192973613739,
                -1.91425026703976e-24,
                3.1262079147609259e-8,
                0.0,
                3.993280233786431e-40,
                1.0870749950408936,
                6.65641437169833e-17,
                0.0,
                -0.8651008605957031,
                70.00116729736328,
                4.4815712793089879e-15,
                1.0
            ],
            "mesh": 0
        }
    ],
    "scenes": [
        {
            "nodes": [
                0
            ]
        }
    ],
    "scene": 0
}